<svg width="61" height="58" viewBox="0 0 61 58" fill="none" xmlns="http://www.w3.org/2000/svg">
<g filter="url(#filter0_d_115_54)">
<g filter="url(#filter1_d_115_54)">
<path d="M9.01142 23C7.90687 22.9951 7.00633 23.8864 7.00002 24.991C6.99371 26.0956 7.88402 26.995 8.98858 27L9.01142 23ZM45.9608 26.5805C46.7463 25.803 46.7535 24.5367 45.977 23.7521L33.3219 10.9672C32.5453 10.1826 31.279 10.1769 30.4935 10.9544C29.708 11.732 29.7007 12.9983 30.4773 13.7828L41.7263 25.1472L30.3481 36.4099C29.5626 37.1874 29.5553 38.4537 30.3319 39.2382C31.1085 40.0228 32.3748 40.0285 33.1603 39.251L45.9608 26.5805ZM8.98858 27L44.5433 27.1599L44.5661 23.16L9.01142 23L8.98858 27Z" fill="white"/>
</g>
<path d="M10.1505 31.9906C9.06719 32.3372 8.46208 33.5006 8.89662 34.5517C10.894 39.3832 14.3646 43.4848 18.8389 46.2552C23.8988 49.3883 29.9106 50.6136 35.7932 49.7106C41.6757 48.8076 47.0432 45.8356 50.9305 41.3291C54.8177 36.8225 56.9698 31.077 56.9997 25.1256C57.0296 19.1742 54.9354 13.4074 51.0936 8.86197C47.2518 4.31658 41.9144 1.29084 36.0412 0.328793C30.168 -0.633257 24.1443 0.531496 19.0531 3.61363C14.5512 6.339 11.0396 10.4055 8.99375 15.2166C8.54868 16.2633 9.14206 17.4327 10.2218 17.7902V17.7902C11.3016 18.1477 12.4574 17.5566 12.9194 16.5173C14.6454 12.6347 17.5233 9.35445 21.1861 7.13708C25.4385 4.56274 30.4699 3.58988 35.3754 4.39343C40.281 5.19698 44.739 7.72422 47.9479 11.5207C51.1567 15.3173 52.9059 20.134 52.8809 25.1049C52.856 30.0758 51.0585 34.8747 47.8116 38.6388C44.5648 42.4029 40.0816 44.8852 35.1682 45.6394C30.2548 46.3937 25.2335 45.3703 21.0072 42.7534C17.3669 40.4993 14.5221 37.1904 12.8351 33.2906C12.3836 32.2467 11.2338 31.644 10.1505 31.9906V31.9906Z" fill="white"/>
</g>
<defs>
<filter id="filter0_d_115_54" x="3" y="-6.10352e-05" width="58" height="58.0001" filterUnits="userSpaceOnUse" color-interpolation-filters="sRGB">
<feFlood flood-opacity="0" result="BackgroundImageFix"/>
<feColorMatrix in="SourceAlpha" type="matrix" values="0 0 0 0 0 0 0 0 0 0 0 0 0 0 0 0 0 0 127 0" result="hardAlpha"/>
<feOffset dy="4"/>
<feGaussianBlur stdDeviation="2"/>
<feComposite in2="hardAlpha" operator="out"/>
<feColorMatrix type="matrix" values="0 0 0 0 1 0 0 0 0 1 0 0 0 0 1 0 0 0 0.25 0"/>
<feBlend mode="normal" in2="BackgroundImageFix" result="effect1_dropShadow_115_54"/>
<feBlend mode="normal" in="SourceGraphic" in2="effect1_dropShadow_115_54" result="shape"/>
</filter>
<filter id="filter1_d_115_54" x="0" y="7.375" width="53.5547" height="43.4554" filterUnits="userSpaceOnUse" color-interpolation-filters="sRGB">
<feFlood flood-opacity="0" result="BackgroundImageFix"/>
<feColorMatrix in="SourceAlpha" type="matrix" values="0 0 0 0 0 0 0 0 0 0 0 0 0 0 0 0 0 0 127 0" result="hardAlpha"/>
<feOffset dy="4"/>
<feGaussianBlur stdDeviation="3.5"/>
<feComposite in2="hardAlpha" operator="out"/>
<feColorMatrix type="matrix" values="0 0 0 0 1 0 0 0 0 1 0 0 0 0 1 0 0 0 0.25 0"/>
<feBlend mode="normal" in2="BackgroundImageFix" result="effect1_dropShadow_115_54"/>
<feBlend mode="normal" in="SourceGraphic" in2="effect1_dropShadow_115_54" result="shape"/>
</filter>
</defs>
</svg>
